<svg xmlns="http://www.w3.org/2000/svg" version="1.1" xmlns:xlink="http://www.w3.org/1999/xlink" xmlns:svgjs="http://svgjs.dev/svgjs" width="1440" height="700" preserveAspectRatio="none" viewBox="0 0 1440 700"><g mask="url(&quot;#SvgjsMask1390&quot;)" fill="none"><rect width="1440" height="700" x="0" y="0" fill="rgba(35, 45, 63, 1)"></rect><path d="M45 700L745 0L1292.5 0L592.5 700z" fill="url(&quot;#SvgjsLinearGradient1391&quot;)"></path><path d="M566.2 700L1266.2 0L1852.7 0L1152.7 700z" fill="url(&quot;#SvgjsLinearGradient1391&quot;)"></path><path d="M1411 700L711 0L540 0L1240 700z" fill="url(&quot;#SvgjsLinearGradient1392&quot;)"></path><path d="M961.8 700L261.79999999999995 0L-219.70000000000005 0L480.29999999999995 700z" fill="url(&quot;#SvgjsLinearGradient1392&quot;)"></path><path d="M1028.0330636466774 700L1440 288.0330636466774L1440 700z" fill="url(&quot;#SvgjsLinearGradient1391&quot;)"></path><path d="M0 700L411.9669363533226 700L 0 288.0330636466774z" fill="url(&quot;#SvgjsLinearGradient1392&quot;)"></path></g><defs><mask id="SvgjsMask1390"><rect width="1440" height="700" fill="#ffffff"></rect></mask><linearGradient x1="0%" y1="100%" x2="100%" y2="0%" id="SvgjsLinearGradient1391"><stop stop-color="rgba(15, 70, 185, 0.2)" offset="0"></stop><stop stop-opacity="0" stop-color="rgba(15, 70, 185, 0.2)" offset="0.66"></stop></linearGradient><linearGradient x1="100%" y1="100%" x2="0%" y2="0%" id="SvgjsLinearGradient1392"><stop stop-color="rgba(15, 70, 185, 0.2)" offset="0"></stop><stop stop-opacity="0" stop-color="rgba(15, 70, 185, 0.2)" offset="0.66"></stop></linearGradient></defs></svg>